<svg  version="1.1"
	 id="svg2"
	 xmlns="http://www.w3.org/2000/svg"
	 viewBox="400 400 1000 1000"
	 overflow="visible"
	 enable-background="new 399.5 426.167 1000 1000"
	 >

<g id="g10" transform="matrix(1.3333333,0,0,-1.3333333,0,1853.3333) scale(0.1)">
		<path id="path14" fill="#AF2F2F" d="M5873.303,3518.546c-36.086,99.844-54.141,111.68-223.63,146.792
			c-133.319,27.656-187.31,82.31-249.529,252.495c-97.229,266.06-103.601,410.713-24.302,551.807l68.873,122.534l-77.853,62.769
			c-65.387,52.705-82.859,99.272-109.259,291.211c-17.311,125.669-31.45,280.796-31.45,344.692
			c0,183.794-153.669,434.568-266.29,434.568c-84.101,0-387.77,284.458-415.459,389.18
			c-34.182,129.141-70.631,165.63-240.59,240.945c-81.559,36.13-169.841,98.606-196.168,138.809
			c-27.352,41.697-89.07,81.702-143.833,93.098c-58.239,12.1-155.508,78.098-247.738,168.003
			c-128.474,125.2-147.14,156.599-121.6,204.397c16.6,31.003,25.902,139.6,20.669,241.296
			c-5.24,101.704,0.271,194.704,12.07,206.602c11.913,11.799,21.599,79.201,21.599,149.7c0,78.303,24.763,171.101,63.79,238.803
			l63.75,110.797l-57.931,99.503c-32.699,56.1-85.939,103.499-122.186,108.798c-88.242,12.799-86.29,158.5,3.988,295.799
			c37.529,57.1,86.788,134.202,109.53,171.401c22.731,37.2,133.319,116.598,245.782,176.499l204.448,108.802l19.018,159.499
			c10.47,87.602,20.321,283.1,21.917,434.301c2.853,271,4.182,275.998,96.643,358.598c58.012,51.801,110.903,76.501,138.75,64.702
			c190.782-80.401,193.832-80.501,469.45-1.601c149.96,42.901,317.033,104.202,371.25,136.099
			c54.181,32,122.271,58.202,151.33,58.202c29.063,0,90.392,29.601,136.373,65.698c45.938,36.2,87.03,62.802,91.249,59.201
			c4.259-3.501,27.729,1.201,52.218,10.599c116.682,44.802,154.728-111.397,54.892-225.498
			c-22.189-25.302-40.349-80.401-40.349-122.3c0-42.001-13.169-84.5-29.22-94.402c-16.062-9.898-29.22-30.399-29.22-45.597
			c0-48.201,83.47-29.502,140.27,31.498l54.958,59l83.833-65.998c46.128-36.2,150.081-88.902,231.021-117.001
			c149.33-52.002,226.439-120.502,310.814-276.299c43.55-80.501,80.112-95.2,525.747-211
			c263.438-68.401,582.583-170.801,709.219-227.501c147.847-66.299,273.032-102.602,349.834-101.499
			c109.819,1.497,474.302-83.002,544.058-126.102c16.304-10.1,29.619-57.001,29.619-104.201c0-57.898,14.692-85.898,45-85.898
			c24.727,0,97.031-26.602,160.635-59.001c89.282-45.601,116.631-77.3,119.912-138.801c7.339-137.6-9.185-282.1-38.481-337.2
			c-41.953-78.699,21.577-145.701,98.877-104.301c97.69,52.302,126.05-9.8,69.302-151.699
			c-48.911-122.201-48.75-123.398,25.269-200.6c117.334-122.501,95.698-239.502-50.903-275.398
			c-44.883-11.001-88.857-42.605-97.778-70.203c-8.906-27.7-46.084-109.402-82.69-181.699
			c-72.979-144.199-117.568-367.397-78.369-391.597c13.726-8.401,51.885,15.696,84.902,53.599
			c32.959,37.998,78.618,80.295,101.396,93.999c22.778,13.696,73.564,84.097,112.822,156.299
			c43.55,80.2,112.69,153.699,177.1,188.298c82.822,44.502,126.021,101.301,199.731,262.405
			c51.709,112.998,122.271,234.998,156.753,270.996c34.453,36.101,86.177,92.699,114.844,125.801
			c28.711,33.098,64.893,52.299,80.347,42.799c37.192-23.002,36.328-130.8-1.084-130.8c-16.055,0-29.18-36.899-29.18-82.002
			c0-45-32.9-126.397-73.052-180.897c-40.151-54.401-73.008-119.799-73.008-145.199c0-25.503-19.995-74.802-44.458-109.702
			c-73.784-105.403-222.451-478.601-264.961-665.2c-22.603-99.28-32.373-234.163-22.544-311.162
			c15.132-117.927,9.346-140.229-43.784-168.669c-90.103-48.201-161.836-320.508-137.959-523.667
			c18.281-155.771,8.394-207.334-104.692-544.614c-67.617-201.709-78.237-302.534-53.906-511.157
			c33.442-286.611,71.836-456.372,115.034-508.404c26.689-32.197,27.07-71.338,1.641-165.82
			c-18.311-68.057-25.078-167.666-15-221.338l18.281-97.573h-3203.94L5873.303,3518.546z"/>
</g>
<rect x="399.5" y="429.781" fill="none" width="1000" height="1000"/>
</svg>
